<svg width="199" height="39" viewBox="0 0 199 39" fill="none" xmlns="http://www.w3.org/2000/svg">
<path d="M1.04907e-05 37.8914C0.832391 37.819 1.48382 37.5838 1.9543 37.1857C2.46096 36.7514 2.7143 36.0276 2.7143 35.0143V2.98571C2.7143 1.97238 2.46096 1.26667 1.9543 0.868571C1.48382 0.434285 0.832391 0.180951 1.04907e-05 0.108571V-1.82561e-06H15.5257C17.7333 -1.82561e-06 19.5791 0.398094 21.0629 1.19428C22.5829 1.95429 23.741 2.93143 24.5372 4.12571C25.3333 5.32 25.7857 6.62286 25.8943 8.03428C26.0029 9.44571 25.7495 10.7848 25.1343 12.0514C24.5552 13.3181 23.6143 14.4219 22.3114 15.3629C21.0448 16.3038 19.4162 16.8829 17.4257 17.1C19.7057 17.2448 21.6238 17.8781 23.18 19C24.7362 20.0857 25.9124 21.4067 26.7086 22.9629C27.5048 24.519 27.9029 26.1838 27.9029 27.9571C27.9029 29.6943 27.4686 31.3048 26.6 32.7886C25.7676 34.2724 24.4648 35.521 22.6914 36.5343C20.9543 37.5114 18.7467 38 16.0686 38H1.04907e-05V37.8914ZM7.05715 16.9371H13.7886C15.5619 16.9371 17.0276 16.539 18.1857 15.7429C19.3438 14.9105 20.1943 13.8971 20.7372 12.7029C21.3162 11.4724 21.5876 10.1514 21.5514 8.74C21.5152 7.32857 21.1714 6.02571 20.52 4.83143C19.9048 3.60095 18.9819 2.58762 17.7514 1.79143C16.5572 0.959045 15.0552 0.542855 13.2457 0.542855H8.25144C7.45525 1.01333 7.05715 1.82762 7.05715 2.98571V16.9371ZM13.7886 37.4571C15.9962 37.4571 17.8238 36.9686 19.2714 35.9914C20.7191 34.9781 21.8048 33.7476 22.5286 32.3C23.2524 30.8162 23.5962 29.2057 23.56 27.4686C23.5238 25.7314 23.1438 24.139 22.42 22.6914C21.6962 21.2076 20.6105 19.9771 19.1629 19C17.7152 17.9867 15.9238 17.48 13.7886 17.48H7.05715V35.0143C7.05715 36.1724 7.45525 36.9867 8.25144 37.4571H13.7886ZM35.9999 35.0143C35.9999 36.7514 36.9047 37.7105 38.7142 37.8914V38H28.9428V37.8914C30.7523 37.7105 31.6571 36.7514 31.6571 35.0143V13.8429C31.6571 12.1057 30.7523 11.1467 28.9428 10.9657V10.8571H35.9999V17.2629C36.2894 16.6476 36.6333 15.9238 37.0313 15.0914C37.4294 14.259 37.9904 13.4629 38.7142 12.7029C39.4742 11.9067 40.4333 11.2371 41.5913 10.6943C42.7856 10.1514 44.2875 9.88 46.0971 9.88C47.038 9.88 48.0333 10.0429 49.0828 10.3686C50.1685 10.6943 50.9647 11.2733 51.4713 12.1057L47.8885 14.5486C47.6713 14.259 47.3999 13.9152 47.0742 13.5171C46.7485 13.119 46.3866 12.739 45.9885 12.3771C45.5904 11.979 45.1742 11.6533 44.7399 11.4C44.3056 11.1105 43.8894 10.9476 43.4913 10.9114C42.659 10.839 41.899 11.0381 41.2113 11.5086C40.5237 11.9429 39.8904 12.54 39.3113 13.3C38.7685 14.0238 38.2799 14.8743 37.8456 15.8514C37.4475 16.8286 37.1037 17.8238 36.8142 18.8371C36.5609 19.8143 36.3618 20.7733 36.2171 21.7143C36.0723 22.6552 35.9999 23.4695 35.9999 24.1571V35.0143ZM62.8586 10.3143C64.3062 10.3143 65.6272 10.5676 66.8215 11.0743C68.052 11.5448 69.1015 12.2324 69.9701 13.1371C70.8748 14.0419 71.5805 15.1457 72.0872 16.4486C72.6301 17.7514 72.9196 19.2171 72.9558 20.8457H54.2272C53.9739 22.6552 53.992 24.501 54.2815 26.3829C54.6072 28.2648 55.2043 29.9657 56.0729 31.4857C56.9415 33.0057 58.1177 34.2543 59.6015 35.2314C61.0853 36.2086 62.8767 36.6971 64.9758 36.6971C66.532 36.6971 67.9434 36.299 69.2101 35.5029C70.5129 34.6705 71.5443 33.5305 72.3043 32.0829H72.4129C71.6891 34.2181 70.4586 35.7924 68.7215 36.8057C66.9843 37.819 65.0301 38.3257 62.8586 38.3257C59.9634 38.3257 57.5386 37.6381 55.5843 36.2629C53.6662 34.8876 52.2186 33.1686 51.2415 31.1057C50.2643 29.0067 49.7758 26.7448 49.7758 24.32C49.7758 21.8952 50.2462 19.6514 51.1872 17.5886C52.1643 15.4895 53.612 13.7524 55.5301 12.3771C57.4843 11.0019 59.9272 10.3143 62.8586 10.3143ZM66.5501 20.3029C67.2377 20.3029 67.7624 20.0676 68.1243 19.5971C68.4862 19.1267 68.7034 18.5476 68.7758 17.86C68.8481 17.1724 68.7577 16.4124 68.5043 15.58C68.2872 14.7476 67.9253 13.9876 67.4186 13.3C66.9481 12.6124 66.3148 12.0333 65.5186 11.5629C64.7586 11.0924 63.872 10.8571 62.8586 10.8571C61.6643 10.8571 60.5786 11.1105 59.6015 11.6171C58.6605 12.1238 57.8281 12.8114 57.1043 13.68C56.3805 14.5486 55.7834 15.5619 55.3129 16.72C54.8424 17.8419 54.4986 19.0362 54.2815 20.3029H66.5501ZM89.1333 37.8914C90.9429 37.7829 91.8476 36.8238 91.8476 35.0143V31.4314C91.0514 33.3857 89.8571 34.9781 88.2648 36.2086C86.7086 37.439 84.8448 38.0543 82.6733 38.0543C80.2486 38.0543 78.2762 37.4029 76.7562 36.1C75.2362 34.7971 74.4943 32.8971 74.5305 30.4C74.5667 28.8076 75.001 27.541 75.8333 26.6C76.7019 25.659 77.7695 24.899 79.0362 24.32C80.3029 23.741 81.66 23.2524 83.1076 22.8543C84.5914 22.4562 85.9486 22.0038 87.179 21.4971C88.4457 20.9905 89.4952 20.3571 90.3276 19.5971C91.16 18.8371 91.5762 17.8057 91.5762 16.5029C91.5762 15.8152 91.4495 15.1457 91.1962 14.4943C90.979 13.8067 90.6533 13.1914 90.219 12.6486C89.821 12.1057 89.3324 11.6714 88.7533 11.3457C88.1743 11.02 87.5229 10.8571 86.799 10.8571C85.8219 10.8571 84.9895 11.0743 84.3019 11.5086C83.6143 11.9429 83.0352 12.5038 82.5648 13.1914C82.1305 13.879 81.7867 14.6571 81.5333 15.5257C81.3162 16.3943 81.1714 17.2448 81.099 18.0771L76.7019 17.7514C76.919 16.4848 77.3533 15.399 78.0048 14.4943C78.6562 13.5533 79.4343 12.7752 80.339 12.16C81.28 11.5448 82.3114 11.0924 83.4333 10.8029C84.5552 10.4771 85.6771 10.3143 86.799 10.3143C88.3552 10.3143 89.7124 10.6219 90.8705 11.2371C92.0648 11.8162 93.0419 12.6124 93.8019 13.6257C94.5981 14.639 95.1952 15.8152 95.5933 17.1543C95.9914 18.4571 96.1905 19.8143 96.1905 21.2257V35.0143C96.1905 36.8238 97.0952 37.7829 98.9048 37.8914V38H89.1333V37.8914ZM91.8476 21.2257C91.8476 20.7914 91.8295 20.3571 91.7933 19.9229C91.7933 19.4524 91.7752 19 91.739 18.5657C91.3048 19.4343 90.6895 20.1581 89.8933 20.7371C89.0971 21.3162 88.2105 21.841 87.2333 22.3114C86.2924 22.7457 85.3152 23.1981 84.3019 23.6686C83.3248 24.1029 82.4381 24.6276 81.6419 25.2429C80.8457 25.8581 80.1762 26.6 79.6333 27.4686C79.1267 28.3371 78.8733 29.441 78.8733 30.78C78.8733 31.5762 78.9819 32.3543 79.199 33.1143C79.4524 33.8743 79.7962 34.5438 80.2305 35.1229C80.701 35.6657 81.2619 36.1181 81.9133 36.48C82.601 36.8057 83.379 36.9686 84.2476 36.9686C85.261 36.9686 86.22 36.679 87.1248 36.1C88.0657 35.4848 88.88 34.7248 89.5676 33.82C90.2552 32.879 90.7981 31.8838 91.1962 30.8343C91.6305 29.7486 91.8476 28.7352 91.8476 27.7943V21.2257ZM104.486 2.82286V10.8571H110.294V11.4H104.486V28.0657C104.486 28.4276 104.486 29.1152 104.486 30.1286C104.522 31.1057 104.612 32.101 104.757 33.1143C104.902 34.1276 105.137 35.0324 105.463 35.8286C105.825 36.6248 106.331 37.0229 106.983 37.0229C107.381 37.0229 107.797 36.8962 108.231 36.6429C108.666 36.3533 109.082 36.0095 109.48 35.6114C109.878 35.2133 110.24 34.8152 110.566 34.4171C110.891 33.9829 111.163 33.621 111.38 33.3314L114.963 35.7743C114.456 36.6067 113.66 37.1857 112.574 37.5114C111.525 37.8371 110.529 38 109.588 38C108.141 38 106.82 37.7648 105.626 37.2943C104.467 36.7876 103.472 36.1 102.64 35.2314C101.844 34.3267 101.228 33.2771 100.794 32.0829C100.36 30.8524 100.143 29.5133 100.143 28.0657V11.4H97.4284V10.8571H100.143V6.24286L104.486 2.82286ZM122.455 35.0143C122.455 36.7514 123.359 37.7105 125.169 37.8914V38H115.397V37.8914C117.207 37.7105 118.112 36.7514 118.112 35.0143V2.98571C118.112 1.24857 117.207 0.289524 115.397 0.108571V-1.82561e-06H122.455V17.2629C123.396 15.4895 124.463 14.0962 125.657 13.0829C126.888 12.0333 128.118 11.3457 129.349 11.02C130.616 10.6943 131.846 10.6943 133.04 11.02C134.271 11.3095 135.356 11.9067 136.297 12.8114C137.238 13.68 137.998 14.82 138.577 16.2314C139.156 17.6429 139.446 19.2714 139.446 21.1171V35.0143C139.446 36.7514 140.351 37.7105 142.16 37.8914V38H132.389V37.8914C134.198 37.7105 135.103 36.7514 135.103 35.0143V21.1714C135.103 18.6381 134.777 16.6476 134.126 15.2C133.511 13.7162 132.733 12.721 131.792 12.2143C130.887 11.6714 129.874 11.5629 128.752 11.8886C127.666 12.1781 126.653 12.8657 125.712 13.9514C124.807 15.001 124.029 16.3943 123.377 18.1314C122.762 19.8686 122.455 21.8771 122.455 24.1571V35.0143ZM144.695 3.31143C144.695 2.47905 144.949 1.80952 145.455 1.30285C145.998 0.759998 146.704 0.48857 147.572 0.48857C148.441 0.48857 149.129 0.759998 149.635 1.30285C150.178 1.80952 150.449 2.47905 150.449 3.31143C150.449 4.18 150.178 4.88571 149.635 5.42857C149.129 5.93524 148.441 6.18857 147.572 6.18857C146.704 6.18857 145.998 5.93524 145.455 5.42857C144.949 4.88571 144.695 4.18 144.695 3.31143ZM143.121 37.8914C144.93 37.7105 145.835 36.7514 145.835 35.0143V13.8429C145.835 12.1057 144.93 11.1467 143.121 10.9657V10.8571H150.178V35.0143C150.178 36.7514 151.083 37.7105 152.892 37.8914V38H143.121V37.8914ZM164.566 38L155.772 13.8429C155.41 12.8295 154.903 12.1238 154.252 11.7257C153.6 11.2914 152.84 11.0381 151.972 10.9657V10.8571H162.069V10.9657C161.309 11.0381 160.748 11.2914 160.386 11.7257C160.06 12.1238 160.078 12.8295 160.44 13.8429L166.846 31.4857L173.252 13.8429C173.614 12.8657 173.523 12.16 172.98 11.7257C172.474 11.2914 171.84 11.0381 171.08 10.9657V10.8571H178.192V10.9657C177.323 11.0381 176.473 11.2914 175.64 11.7257C174.844 12.1238 174.247 12.8295 173.849 13.8429L165.054 38H164.566ZM188.945 37.8914C190.754 37.7829 191.659 36.8238 191.659 35.0143V31.4314C190.863 33.3857 189.669 34.9781 188.076 36.2086C186.52 37.439 184.656 38.0543 182.485 38.0543C180.06 38.0543 178.088 37.4029 176.568 36.1C175.048 34.7971 174.306 32.8971 174.342 30.4C174.378 28.8076 174.812 27.541 175.645 26.6C176.513 25.659 177.581 24.899 178.848 24.32C180.114 23.741 181.471 23.2524 182.919 22.8543C184.403 22.4562 185.76 22.0038 186.991 21.4971C188.257 20.9905 189.307 20.3571 190.139 19.5971C190.971 18.8371 191.388 17.8057 191.388 16.5029C191.388 15.8152 191.261 15.1457 191.008 14.4943C190.791 13.8067 190.465 13.1914 190.031 12.6486C189.632 12.1057 189.144 11.6714 188.565 11.3457C187.986 11.02 187.334 10.8571 186.611 10.8571C185.633 10.8571 184.801 11.0743 184.113 11.5086C183.426 11.9429 182.847 12.5038 182.376 13.1914C181.942 13.879 181.598 14.6571 181.345 15.5257C181.128 16.3943 180.983 17.2448 180.911 18.0771L176.513 17.7514C176.731 16.4848 177.165 15.399 177.816 14.4943C178.468 13.5533 179.246 12.7752 180.151 12.16C181.091 11.5448 182.123 11.0924 183.245 10.8029C184.367 10.4771 185.489 10.3143 186.611 10.3143C188.167 10.3143 189.524 10.6219 190.682 11.2371C191.876 11.8162 192.853 12.6124 193.613 13.6257C194.41 14.639 195.007 15.8152 195.405 17.1543C195.803 18.4571 196.002 19.8143 196.002 21.2257V35.0143C196.002 36.8238 196.907 37.7829 198.716 37.8914V38H188.945V37.8914ZM191.659 21.2257C191.659 20.7914 191.641 20.3571 191.605 19.9229C191.605 19.4524 191.587 19 191.551 18.5657C191.116 19.4343 190.501 20.1581 189.705 20.7371C188.909 21.3162 188.022 21.841 187.045 22.3114C186.104 22.7457 185.127 23.1981 184.113 23.6686C183.136 24.1029 182.25 24.6276 181.453 25.2429C180.657 25.8581 179.988 26.6 179.445 27.4686C178.938 28.3371 178.685 29.441 178.685 30.78C178.685 31.5762 178.793 32.3543 179.011 33.1143C179.264 33.8743 179.608 34.5438 180.042 35.1229C180.512 35.6657 181.073 36.1181 181.725 36.48C182.412 36.8057 183.191 36.9686 184.059 36.9686C185.072 36.9686 186.031 36.679 186.936 36.1C187.877 35.4848 188.691 34.7248 189.379 33.82C190.067 32.879 190.61 31.8838 191.008 30.8343C191.442 29.7486 191.659 28.7352 191.659 27.7943V21.2257Z" fill="#F9F6F3"/>
</svg>
