<svg width="95" height="76" viewBox="0 0 95 76" fill="none" xmlns="http://www.w3.org/2000/svg">
<path d="M46 23.0065C46 35.7127 35.7067 46.0131 23.0093 46.0131C20.5572 46.0131 17.4015 44.6597 17.4015 44.6597C2.25078 41.9531 25.0652 74.884 23.7128 73.9818C-1.53194 55.4863 0.0185567 25.5277 0.0185567 23.0065C0.0185567 10.3004 10.3118 0 23.0093 0C35.7067 0 46 10.3004 46 23.0065Z" fill="#7FA69B" fill-opacity="0.14"/>
<path d="M95 23.6283C95 36.6779 84.7067 47.2567 72.0093 47.2567C69.5572 47.2567 66.4015 45.8668 66.4015 45.8668C51.2508 43.087 74.0652 76.9079 72.7128 75.9813C47.4681 56.986 49.0186 26.2177 49.0186 23.6283C49.0186 10.5788 59.3118 0 72.0093 0C84.7067 0 95 10.5788 95 23.6283Z" fill="#7FA69B" fill-opacity="0.14"/>
</svg>
