<svg width="129" height="24" viewBox="0 0 129 24" fill="none" xmlns="http://www.w3.org/2000/svg">
<path d="M-8.78666e-05 23.732C0.521245 23.6867 0.929245 23.5393 1.22391 23.29C1.54125 23.018 1.69991 22.5647 1.69991 21.93V1.87C1.69991 1.23533 1.54125 0.793333 1.22391 0.544001C0.929245 0.272 0.521245 0.113333 -8.78666e-05 0.0680007V-4.76837e-07H9.72391C11.1066 -4.76837e-07 12.2626 0.249333 13.1919 0.748C14.1439 1.224 14.8692 1.836 15.3679 2.584C15.8666 3.332 16.1499 4.148 16.2179 5.032C16.2859 5.916 16.1272 6.75467 15.7419 7.548C15.3792 8.34133 14.7899 9.03267 13.9739 9.622C13.1806 10.2113 12.1606 10.574 10.9139 10.71C12.3419 10.8007 13.5432 11.1973 14.5179 11.9C15.4926 12.58 16.2292 13.4073 16.7279 14.382C17.2266 15.3567 17.4759 16.3993 17.4759 17.51C17.4759 18.598 17.2039 19.6067 16.6599 20.536C16.1386 21.4653 15.3226 22.2473 14.2119 22.882C13.1239 23.494 11.7412 23.8 10.0639 23.8H-8.78666e-05V23.732ZM4.41991 10.608H8.63591C9.74658 10.608 10.6646 10.3587 11.3899 9.86C12.1152 9.33867 12.6479 8.704 12.9879 7.956C13.3506 7.18533 13.5206 6.358 13.4979 5.474C13.4752 4.59 13.2599 3.774 12.8519 3.026C12.4666 2.25533 11.8886 1.62067 11.1179 1.122C10.3699 0.600666 9.42925 0.339999 8.29591 0.339999H5.16791C4.66925 0.634666 4.41991 1.14467 4.41991 1.87V10.608ZM8.63591 23.46C10.0186 23.46 11.1632 23.154 12.0699 22.542C12.9766 21.9073 13.6566 21.1367 14.1099 20.23C14.5632 19.3007 14.7786 18.292 14.7559 17.204C14.7332 16.116 14.4952 15.1187 14.0419 14.212C13.5886 13.2827 12.9086 12.512 12.0019 11.9C11.0952 11.2653 9.97325 10.948 8.63591 10.948H4.41991V21.93C4.41991 22.6553 4.66925 23.1653 5.16791 23.46H8.63591ZM23.1152 21.93C23.1152 23.018 23.6819 23.6187 24.8152 23.732V23.8H18.6952V23.732C19.8286 23.6187 20.3952 23.018 20.3952 21.93V8.67C20.3952 7.582 19.8286 6.98133 18.6952 6.868V6.8H23.1152V10.812C23.2966 10.4267 23.5119 9.97333 23.7612 9.452C24.0106 8.93067 24.3619 8.432 24.8152 7.956C25.2912 7.45733 25.8919 7.038 26.6172 6.698C27.3652 6.358 28.3059 6.188 29.4392 6.188C30.0286 6.188 30.6519 6.29 31.3092 6.494C31.9892 6.698 32.4879 7.06067 32.8052 7.582L30.5612 9.112C30.4252 8.93067 30.2552 8.71533 30.0512 8.466C29.8472 8.21667 29.6206 7.97867 29.3712 7.752C29.1219 7.50267 28.8612 7.29867 28.5892 7.14C28.3172 6.95867 28.0566 6.85667 27.8072 6.834C27.2859 6.78867 26.8099 6.91333 26.3792 7.208C25.9486 7.48 25.5519 7.854 25.1892 8.33C24.8492 8.78333 24.5432 9.316 24.2712 9.928C24.0219 10.54 23.8066 11.1633 23.6252 11.798C23.4666 12.41 23.3419 13.0107 23.2512 13.6C23.1606 14.1893 23.1152 14.6993 23.1152 15.13V21.93ZM40.5053 6.46C41.4119 6.46 42.2393 6.61867 42.9873 6.936C43.7579 7.23067 44.4153 7.66133 44.9593 8.228C45.5259 8.79467 45.9679 9.486 46.2853 10.302C46.6253 11.118 46.8066 12.036 46.8293 13.056H35.0993C34.9406 14.1893 34.9519 15.3453 35.1333 16.524C35.3373 17.7027 35.7113 18.768 36.2553 19.72C36.7993 20.672 37.5359 21.454 38.4653 22.066C39.3946 22.678 40.5166 22.984 41.8313 22.984C42.8059 22.984 43.6899 22.7347 44.4833 22.236C45.2993 21.7147 45.9453 21.0007 46.4213 20.094H46.4893C46.0359 21.4313 45.2653 22.4173 44.1773 23.052C43.0893 23.6867 41.8653 24.004 40.5053 24.004C38.6919 24.004 37.1733 23.5733 35.9493 22.712C34.7479 21.8507 33.8413 20.774 33.2293 19.482C32.6173 18.1673 32.3113 16.7507 32.3113 15.232C32.3113 13.7133 32.6059 12.308 33.1953 11.016C33.8073 9.70133 34.7139 8.61333 35.9153 7.752C37.1393 6.89067 38.6693 6.46 40.5053 6.46ZM42.8173 12.716C43.2479 12.716 43.5766 12.5687 43.8033 12.274C44.0299 11.9793 44.1659 11.6167 44.2113 11.186C44.2566 10.7553 44.1999 10.2793 44.0413 9.758C43.9053 9.23667 43.6786 8.76067 43.3613 8.33C43.0666 7.89933 42.6699 7.53667 42.1713 7.242C41.6953 6.94733 41.1399 6.8 40.5053 6.8C39.7573 6.8 39.0773 6.95867 38.4653 7.276C37.8759 7.59333 37.3546 8.024 36.9013 8.568C36.4479 9.112 36.0739 9.74667 35.7793 10.472C35.4846 11.1747 35.2693 11.9227 35.1333 12.716H42.8173ZM57.5295 23.732C58.6629 23.664 59.2295 23.0633 59.2295 21.93V19.686C58.7309 20.91 57.9829 21.9073 56.9855 22.678C56.0109 23.4487 54.8435 23.834 53.4835 23.834C51.9649 23.834 50.7295 23.426 49.7775 22.61C48.8255 21.794 48.3609 20.604 48.3835 19.04C48.4062 18.0427 48.6782 17.2493 49.1995 16.66C49.7435 16.0707 50.4122 15.5947 51.2055 15.232C51.9989 14.8693 52.8489 14.5633 53.7555 14.314C54.6849 14.0647 55.5349 13.7813 56.3055 13.464C57.0989 13.1467 57.7562 12.75 58.2775 12.274C58.7989 11.798 59.0595 11.152 59.0595 10.336C59.0595 9.90533 58.9802 9.486 58.8215 9.078C58.6855 8.64733 58.4815 8.262 58.2095 7.922C57.9602 7.582 57.6542 7.31 57.2915 7.106C56.9289 6.902 56.5209 6.8 56.0675 6.8C55.4555 6.8 54.9342 6.936 54.5035 7.208C54.0729 7.48 53.7102 7.83133 53.4155 8.262C53.1435 8.69267 52.9282 9.18 52.7695 9.724C52.6335 10.268 52.5429 10.8007 52.4975 11.322L49.7435 11.118C49.8795 10.3247 50.1515 9.64467 50.5595 9.078C50.9675 8.48867 51.4549 8.00133 52.0215 7.616C52.6109 7.23067 53.2569 6.94733 53.9595 6.766C54.6622 6.562 55.3649 6.46 56.0675 6.46C57.0422 6.46 57.8922 6.65267 58.6175 7.038C59.3655 7.40067 59.9775 7.89933 60.4535 8.534C60.9522 9.16867 61.3262 9.90533 61.5755 10.744C61.8249 11.56 61.9495 12.41 61.9495 13.294V21.93C61.9495 23.0633 62.5162 23.664 63.6495 23.732V23.8H57.5295V23.732ZM59.2295 13.294C59.2295 13.022 59.2182 12.75 59.1955 12.478C59.1955 12.1833 59.1842 11.9 59.1615 11.628C58.8895 12.172 58.5042 12.6253 58.0055 12.988C57.5069 13.3507 56.9515 13.6793 56.3395 13.974C55.7502 14.246 55.1382 14.5293 54.5035 14.824C53.8915 15.096 53.3362 15.4247 52.8375 15.81C52.3389 16.1953 51.9195 16.66 51.5795 17.204C51.2622 17.748 51.1035 18.4393 51.1035 19.278C51.1035 19.7767 51.1715 20.264 51.3075 20.74C51.4662 21.216 51.6815 21.6353 51.9535 21.998C52.2482 22.338 52.5995 22.6213 53.0075 22.848C53.4382 23.052 53.9255 23.154 54.4695 23.154C55.1042 23.154 55.7049 22.9727 56.2715 22.61C56.8609 22.2247 57.3709 21.7487 57.8015 21.182C58.2322 20.5927 58.5722 19.9693 58.8215 19.312C59.0935 18.632 59.2295 17.9973 59.2295 17.408V13.294ZM67.7129 1.768V6.8H71.3509V7.14H67.7129V17.578C67.7129 17.8047 67.7129 18.2353 67.7129 18.87C67.7355 19.482 67.7922 20.1053 67.8829 20.74C67.9735 21.3747 68.1209 21.9413 68.3249 22.44C68.5515 22.9387 68.8689 23.188 69.2769 23.188C69.5262 23.188 69.7869 23.1087 70.0589 22.95C70.3309 22.7687 70.5915 22.5533 70.8409 22.304C71.0902 22.0547 71.3169 21.8053 71.5209 21.556C71.7249 21.284 71.8949 21.0573 72.0309 20.876L74.2749 22.406C73.9575 22.9273 73.4589 23.29 72.7789 23.494C72.1215 23.698 71.4982 23.8 70.9089 23.8C70.0022 23.8 69.1749 23.6527 68.4269 23.358C67.7015 23.0407 67.0782 22.61 66.5569 22.066C66.0582 21.4993 65.6729 20.842 65.4009 20.094C65.1289 19.3233 64.9929 18.4847 64.9929 17.578V7.14H63.2929V6.8H64.9929V3.91L67.7129 1.768ZM79.5351 21.93C79.5351 23.018 80.1018 23.6187 81.2351 23.732V23.8H75.1151V23.732C76.2485 23.6187 76.8151 23.018 76.8151 21.93V1.87C76.8151 0.782 76.2485 0.181334 75.1151 0.0680007V-4.76837e-07H79.5351V10.812C80.1245 9.70133 80.7931 8.82867 81.5411 8.194C82.3118 7.53667 83.0825 7.106 83.8531 6.902C84.6465 6.698 85.4171 6.698 86.1651 6.902C86.9358 7.08333 87.6158 7.45733 88.2051 8.024C88.7945 8.568 89.2705 9.282 89.6331 10.166C89.9958 11.05 90.1771 12.07 90.1771 13.226V21.93C90.1771 23.018 90.7438 23.6187 91.8771 23.732V23.8H85.7571V23.732C86.8905 23.6187 87.4571 23.018 87.4571 21.93V13.26C87.4571 11.6733 87.2531 10.4267 86.8451 9.52C86.4598 8.59067 85.9725 7.96733 85.3831 7.65C84.8165 7.31 84.1818 7.242 83.4791 7.446C82.7991 7.62733 82.1645 8.058 81.5751 8.738C81.0085 9.39533 80.5211 10.268 80.1131 11.356C79.7278 12.444 79.5351 13.702 79.5351 15.13V21.93ZM94.0328 2.074C94.0328 1.55267 94.1915 1.13333 94.5088 0.815999C94.8488 0.475999 95.2908 0.306 95.8348 0.306C96.3788 0.306 96.8095 0.475999 97.1268 0.815999C97.4668 1.13333 97.6368 1.55267 97.6368 2.074C97.6368 2.618 97.4668 3.06 97.1268 3.4C96.8095 3.71733 96.3788 3.876 95.8348 3.876C95.2908 3.876 94.8488 3.71733 94.5088 3.4C94.1915 3.06 94.0328 2.618 94.0328 2.074ZM93.0468 23.732C94.1801 23.6187 94.7468 23.018 94.7468 21.93V8.67C94.7468 7.582 94.1801 6.98133 93.0468 6.868V6.8H97.4668V21.93C97.4668 23.018 98.0335 23.6187 99.1668 23.732V23.8H93.0468V23.732ZM107.046 23.8L101.538 8.67C101.311 8.03533 100.994 7.59333 100.586 7.344C100.178 7.072 99.7021 6.91333 99.1581 6.868V6.8H105.482V6.868C105.006 6.91333 104.655 7.072 104.428 7.344C104.224 7.59333 104.235 8.03533 104.462 8.67L108.474 19.72L112.486 8.67C112.713 8.058 112.656 7.616 112.316 7.344C111.999 7.072 111.602 6.91333 111.126 6.868V6.8H115.58V6.868C115.036 6.91333 114.503 7.072 113.982 7.344C113.483 7.59333 113.109 8.03533 112.86 8.67L107.352 23.8H107.046ZM122.883 23.732C124.016 23.664 124.583 23.0633 124.583 21.93V19.686C124.084 20.91 123.336 21.9073 122.339 22.678C121.364 23.4487 120.197 23.834 118.837 23.834C117.318 23.834 116.083 23.426 115.131 22.61C114.179 21.794 113.714 20.604 113.737 19.04C113.76 18.0427 114.032 17.2493 114.553 16.66C115.097 16.0707 115.766 15.5947 116.559 15.232C117.352 14.8693 118.202 14.5633 119.109 14.314C120.038 14.0647 120.888 13.7813 121.659 13.464C122.452 13.1467 123.11 12.75 123.631 12.274C124.152 11.798 124.413 11.152 124.413 10.336C124.413 9.90533 124.334 9.486 124.175 9.078C124.039 8.64733 123.835 8.262 123.563 7.922C123.314 7.582 123.008 7.31 122.645 7.106C122.282 6.902 121.874 6.8 121.421 6.8C120.809 6.8 120.288 6.936 119.857 7.208C119.426 7.48 119.064 7.83133 118.769 8.262C118.497 8.69267 118.282 9.18 118.123 9.724C117.987 10.268 117.896 10.8007 117.851 11.322L115.097 11.118C115.233 10.3247 115.505 9.64467 115.913 9.078C116.321 8.48867 116.808 8.00133 117.375 7.616C117.964 7.23067 118.61 6.94733 119.313 6.766C120.016 6.562 120.718 6.46 121.421 6.46C122.396 6.46 123.246 6.65267 123.971 7.038C124.719 7.40067 125.331 7.89933 125.807 8.534C126.306 9.16867 126.68 9.90533 126.929 10.744C127.178 11.56 127.303 12.41 127.303 13.294V21.93C127.303 23.0633 127.87 23.664 129.003 23.732V23.8H122.883V23.732ZM124.583 13.294C124.583 13.022 124.572 12.75 124.549 12.478C124.549 12.1833 124.538 11.9 124.515 11.628C124.243 12.172 123.858 12.6253 123.359 12.988C122.86 13.3507 122.305 13.6793 121.693 13.974C121.104 14.246 120.492 14.5293 119.857 14.824C119.245 15.096 118.69 15.4247 118.191 15.81C117.692 16.1953 117.273 16.66 116.933 17.204C116.616 17.748 116.457 18.4393 116.457 19.278C116.457 19.7767 116.525 20.264 116.661 20.74C116.82 21.216 117.035 21.6353 117.307 21.998C117.602 22.338 117.953 22.6213 118.361 22.848C118.792 23.052 119.279 23.154 119.823 23.154C120.458 23.154 121.058 22.9727 121.625 22.61C122.214 22.2247 122.724 21.7487 123.155 21.182C123.586 20.5927 123.926 19.9693 124.175 19.312C124.447 18.632 124.583 17.9973 124.583 17.408V13.294Z" fill="white"/>
</svg>
