<svg width="59" height="56" viewBox="0 0 59 56" fill="none" xmlns="http://www.w3.org/2000/svg">
<path d="M51.3188 45.1007C49.9432 44.1103 43.5401 41.0566 40.5106 39.6535L38.5454 32.7207C37.481 35.857 36.1381 42.9218 39.2824 46.0911M51.3188 45.1007L39.2824 46.0911M51.3188 45.1007C51.7878 45.4384 52.4943 45.5918 53.2839 45.6113M39.2824 46.0911C35.8434 46.7884 28.6709 48.4442 27.4918 49.4892M53.2839 45.6113C55.3893 45.6634 58.0851 44.763 58.4424 43.8627C58.9337 42.6247 56.2316 40.8915 53.2839 40.6439C50.3362 40.3963 48.1254 38.1679 45.4234 35.4443C42.7213 32.7207 42.7213 27.2735 40.5106 23.3119C38.7419 20.1427 32.7329 19.3503 29.9495 19.3503C18.8969 18.1123 16.9292 24.5499 16.6836 25.5403C16.4379 26.5307 13.9815 34.4539 13.2446 35.4443C12.655 36.2366 8.90477 39.2408 7.10333 40.6439H3.41871C-0.265913 41.6343 0.22537 43.8627 1.20794 45.1007C1.99399 46.0911 5.46572 45.5134 7.10333 45.1007M53.2839 45.6113C54.1027 46.5141 55.4947 48.6661 54.5121 50.0527C53.2839 51.7859 50.3362 55.4999 47.6342 55.4999C46.9007 55.4999 43.6766 55.4999 39.2824 55.4999M7.10333 45.1007C6.3664 45.4308 4.89256 46.6358 4.89256 48.8147C4.89256 50.9936 8.33154 54.1793 10.051 55.4999C17.7329 55.4999 30.726 55.4999 39.2824 55.4999M7.10333 45.1007L8.33175 44.4672M19.6313 47.0815C22.972 43.318 21.3507 35.9395 20.1225 32.7207L17.6661 39.6535L8.33175 44.4672M19.6313 47.0815L8.33175 44.4672M19.6313 47.0815C21.3664 47.7374 24.5953 48.8276 27.4918 49.4892M39.2824 55.4999C41.9842 55.4999 42.7215 53.7667 42.7215 51.5383C42.7215 49.3099 35.3523 50.0527 31.422 50.0527C30.36 50.0527 28.9691 49.8267 27.4918 49.4892M29.9495 0.532768C32.1602 0.285168 36.4835 1.32509 36.0905 7.46556C35.6975 13.606 31.8327 15.8014 29.9495 16.1315C28.3119 16.049 25.1336 14.6955 23.5615 7.96075C23.3977 5.64982 24.0541 0.532768 29.9495 0.532768Z" stroke="#D8AA78"/>
</svg>
