<svg width="1920" height="900" viewBox="0 0 1920 900" fill="none" xmlns="http://www.w3.org/2000/svg">
<g clip-path="url(#clip0_2040_1591)">
<mask id="mask0_2040_1591" style="mask-type:alpha" maskUnits="userSpaceOnUse" x="0" y="0" width="1920" height="900">
<rect width="1920" height="900" fill="#0A140A"/>
</mask>
<g mask="url(#mask0_2040_1591)">
</g>
<path opacity="0.15" d="M396.636 -100.405C407.162 -98.8815 417.828 -97.3182 427.598 -93.1197C434.534 -90.1411 442.112 -85.389 446.294 -78.905C452.104 -69.9001 438.474 -71.697 431.596 -70.1822C414.558 -66.4327 398.083 -59.519 384.204 -48.8437C365.422 -34.3979 351.723 -12.6714 349.531 10.922C349.101 15.5585 349.466 20.9962 353.248 23.7117C358.699 27.6229 366.03 22.8559 370.885 18.2282C398.888 -8.46057 431.656 -50.7584 475.224 -43.2827C486.768 -41.3028 497.68 -36.7162 508.472 -32.1645C518.246 -28.0426 528.315 -23.7221 535.637 -16.0441C542.38 -8.97394 546.189 0.321284 549.849 9.38018C553.262 17.8228 572.215 52.9685 560.404 57.5161C553.895 60.0225 542.048 55.9186 535.113 55.5122C526.479 55.0056 517.812 55.0653 509.186 55.6773C491.514 56.93 474.006 60.4962 457.256 66.2654C452.516 67.8979 410.818 83.7614 411.972 88.6538C416.188 106.532 433.941 120.218 452.303 119.747C461.934 119.5 471.1 115.844 480.181 112.623C517.425 99.4142 568.328 83.9807 604.368 107.888C609.329 111.18 613.913 115.107 617.543 119.826C626.413 131.353 628.886 146.513 629.655 161.037C630.267 172.603 634.39 202.994 622.694 210.339C616.663 214.129 607.89 211.144 601.514 210.218C591.362 208.746 581.135 207.785 570.886 207.337C558.395 206.79 542.354 200.929 534.678 215.027C531.52 220.825 531.567 227.809 532.268 234.372C532.57 237.197 532.671 243.305 535.531 244.626C538.196 245.859 545.743 243.569 548.721 243.253C557.782 242.291 566.863 241.411 575.975 241.149C593.868 240.636 612.281 242.589 628.184 251.402C630.054 252.439 631.947 253.634 633.034 255.473C635.154 259.059 633.524 263.587 632.052 267.484C626.644 281.791 630.099 297.287 630.062 312.574C630.039 321.674 629.426 347.962 633.762 363.628C502.326 288.36 440.163 126.761 311.207 47.32C308.083 45.3962 304.921 43.5446 301.742 41.7269C296.429 27.1507 295.013 10.9687 297.821 -4.31341C305.202 -44.4807 338.275 -74.8327 371.565 -95.4672C375.338 -97.8058 379.293 -100.042 383.657 -100.853C387.935 -101.649 392.332 -101.027 396.636 -100.405ZM467.565 167.858C488.018 170.106 512.667 163.042 532.86 159.818C533.77 159.673 534.725 159.506 535.442 158.925C536.618 157.969 536.752 156.256 536.796 154.742C536.992 147.756 536.533 139.467 530.624 135.737C528.406 134.338 525.745 133.853 523.151 133.473C505.002 130.81 486.321 131.824 468.566 136.436C452.316 140.656 448.545 165.769 467.565 167.858ZM413.549 39.9651C429.284 37.7869 443.496 29.5119 458.875 25.5321C470.055 22.6395 481.61 22.114 493.087 21.5324C500.578 21.1538 516.853 23.1948 522.312 16.9863C534.488 3.13838 504.511 -12.5895 494.257 -11.9399C488.857 -11.5978 483.965 -8.77856 479.327 -5.99151C458.36 6.59936 437.871 19.9832 417.916 34.1237C415.853 35.5873 413.585 37.4363 413.549 39.9651Z" fill="#384535"/>
<path opacity="0.15" d="M334.041 74.7193C389.439 118.375 429.468 178.018 473.715 232.944C517.964 287.872 566.548 342.246 633.762 363.628C636.002 366.051 617.558 369.585 614.263 370.553C609.63 371.912 605.051 373.455 600.495 375.048C582.295 381.41 564.328 389.037 545.135 391.899C543.17 392.192 541.146 392.432 539.211 391.977C530.638 389.955 530.996 380.045 530.572 373.372C529.854 362.115 526.709 351.377 526.975 339.89C527.241 328.45 528.51 314.985 519.742 307.632C513.193 302.139 502.936 302.755 495.849 307.533C488.764 312.312 484.513 320.417 482.417 328.702C479.492 340.257 480.673 352.638 485.063 363.667C487.391 369.513 490.623 375.012 494.654 379.847C498.427 384.372 504.244 387.569 507.619 391.93C499.456 395.304 489.12 395.825 480.369 397.023C470.224 398.412 459.14 399.398 450.449 393.985C448.054 392.495 445.96 390.577 443.882 388.672C435.428 380.922 430.046 376.38 426.955 365.171C424.231 355.297 422.907 345.044 422.967 334.803C423.026 324.957 424.363 315.113 426.991 305.622C428.357 300.695 430.067 295.862 432.126 291.182C433.4 288.285 438.802 281.519 438.711 278.642C441.58 274.004 444.557 267.297 440.336 263.843C438.959 262.716 437.135 262.341 435.389 262.002C426.279 260.234 415.714 258.823 408.719 264.919C402.153 270.638 401.647 280.485 401.633 289.192C401.595 311.545 401.557 333.9 401.519 356.253C401.51 361.245 402.518 367.457 401.496 372.326C400.211 378.446 398.293 377.011 391.875 376.707C380.721 376.179 369.565 375.674 358.411 375.158C348.496 374.698 337.377 373.671 331 366.067C323.303 356.889 322.26 338.202 321.614 326.649C320.818 312.388 322.339 298.014 325.943 284.198C329.457 270.727 334.956 257.763 342.276 245.916C345.927 240.006 350.031 234.37 354.562 229.102C355.952 227.485 369.626 215.219 369.402 214.464C365.64 201.77 347.14 199.238 336.228 206.734C325.315 214.232 320.275 227.539 315.852 240.018C304.065 273.273 292.113 307.579 293.829 342.819C282.327 339.291 271.241 334.408 260.874 328.304C256.633 325.807 252.387 322.987 249.696 318.864C247.339 315.256 246.366 310.941 245.496 306.72C242.49 292.152 240.184 277.087 242.897 262.464C251.899 213.941 309.931 189.924 328.84 144.34C323.095 137.602 312.52 137.996 304.085 140.691C282.941 147.448 266.621 164.394 253.708 182.452C231.663 213.28 216.81 249.22 210.663 286.62C193.452 268.688 176.239 250.756 159.028 232.825C154.826 228.446 150.588 224.023 147.445 218.832C139.601 205.883 139.446 189.867 139.521 174.729C139.586 161.609 139.732 148.083 144.892 136.021C150.7 122.446 162.191 112.26 173.459 102.721C194.538 84.8721 216.67 67.272 242.745 58.1647C259.678 52.2494 277.636 50.1515 295.523 48.4504C308.899 56.3599 321.798 65.0715 334.041 74.7193ZM401.136 197.416C398.941 198.584 397.385 200.647 395.95 202.676C391.234 209.338 372.288 233.742 379.261 241.612C386.117 249.348 413.802 228.577 421.187 224.48C422.624 223.682 424.137 222.808 424.908 221.357C425.551 220.146 425.579 218.715 425.591 217.345C425.638 212.103 425.685 206.862 425.732 201.62C425.74 200.755 425.734 199.839 425.284 199.099C424.672 198.093 423.424 197.702 422.277 197.43C417.379 196.264 412.31 195.801 407.282 196.061C405.169 196.168 403.002 196.421 401.136 197.416ZM238.771 126.914C234.47 132.283 230.567 137.991 225.802 142.953C223.367 145.488 220.686 147.856 218.881 150.871C212.851 160.935 218.041 179.512 231.646 170.978C245.082 162.549 256.703 147.499 268.163 136.535C275.721 129.303 283.372 122.002 292.411 116.734C299.614 112.536 307.604 109.691 314.373 104.828C315.392 104.095 316.46 103.191 316.63 101.947C316.797 100.737 316.063 99.6047 315.353 98.6111C312.667 94.8443 309.846 91.1734 306.899 87.6072C305.662 86.109 304.292 84.557 302.424 84.0194C300.44 83.4487 298.334 84.1487 296.405 84.8848C273.929 93.4644 253.81 108.134 238.771 126.914ZM239.062 71.7927C233.593 74.4841 220.064 84.7667 229.619 91.194C235.844 95.38 253.564 87.4895 260.195 85.8862C266.617 84.3346 273.21 82.7066 278.615 78.9057C280.194 77.7946 281.757 76.3207 281.967 74.4015C282.093 73.2534 281.712 72.1169 281.334 71.0247C280.281 67.9711 278.994 64.6385 276.13 63.1456C274.392 62.2396 272.343 62.1801 270.382 62.2601C259.397 62.7141 248.927 66.939 239.062 71.7927Z" fill="#384535"/>
<path opacity="0.15" d="M633.762 363.626C566.548 342.246 517.963 287.87 473.716 232.942C429.469 178.014 389.439 118.372 334.041 74.7174C321.798 65.0697 308.9 56.3582 295.523 48.4469C250.75 21.9679 200.364 4.86709 149.098 -4.803C130.009 -8.4022 110.119 -11.2572 93.7251 -21.6774C77.2542 -32.1485 64.4012 -48.6945 45.9502 -55.0551C90.7251 -39.6422 135.5 -24.2311 180.273 -8.81828C221.803 5.47672 263.68 19.956 301.742 41.7231C304.921 43.5409 308.083 45.3923 311.207 47.3162C440.163 126.761 502.326 288.359 633.762 363.626Z" fill="#455641"/>
<path opacity="0.15" d="M1801.47 909.891C1793.66 909.307 1785.75 908.7 1778.36 906.112C1773.12 904.277 1767.31 901.171 1763.91 896.622C1759.19 890.304 1769.29 890.932 1774.26 889.471C1786.58 885.854 1798.33 879.941 1807.98 871.398C1821.04 859.838 1830 843.188 1830.41 825.752C1830.49 822.325 1829.95 818.351 1827.03 816.549C1822.83 813.953 1817.69 817.825 1814.36 821.47C1795.15 842.488 1773.23 875.211 1740.86 871.931C1732.28 871.063 1724.04 868.248 1715.88 865.453C1708.5 862.922 1700.88 860.26 1695.12 854.993C1689.81 850.143 1686.54 843.51 1683.39 837.044C1680.46 831.017 1664.76 806.17 1673.2 802.232C1677.85 800.061 1686.76 802.474 1691.87 802.42C1698.24 802.355 1704.6 801.871 1710.9 800.984C1723.82 799.168 1736.49 795.661 1748.5 790.575C1751.9 789.136 1781.71 775.372 1780.62 771.838C1776.61 758.924 1762.88 749.774 1749.42 751.051C1742.36 751.721 1735.82 754.871 1729.31 757.696C1702.63 769.285 1666.04 783.2 1638.36 767.472C1634.55 765.306 1630.98 762.655 1628.08 759.374C1620.98 751.359 1618.4 740.352 1617.09 729.725C1616.06 721.263 1611.49 699.156 1619.71 693.169C1623.94 690.08 1630.54 691.827 1635.26 692.183C1642.79 692.75 1650.35 692.936 1657.9 692.745C1667.1 692.514 1679.18 696.004 1684.1 685.262C1686.13 680.844 1685.74 675.718 1684.89 670.934C1684.52 668.875 1684.14 664.395 1681.97 663.57C1679.95 662.799 1674.53 664.864 1672.36 665.247C1665.75 666.413 1659.13 667.52 1652.45 668.174C1639.34 669.458 1625.72 668.958 1613.59 663.293C1612.17 662.627 1610.71 661.845 1609.82 660.55C1608.09 658.024 1609.05 654.616 1609.94 651.68C1613.18 640.9 1609.86 629.696 1609.11 618.468C1608.67 611.785 1607.78 592.449 1603.8 581.166C1704.14 629.771 1757.98 745.285 1856.71 797.08C1859.1 798.334 1861.51 799.534 1863.94 800.707C1868.58 811.142 1870.44 822.953 1869.16 834.317C1865.77 864.187 1843.03 888.153 1819.63 904.994C1816.97 906.903 1814.18 908.745 1811.02 909.563C1807.92 910.364 1804.66 910.13 1801.47 909.891ZM1735.78 716.495C1720.64 715.883 1702.9 722.32 1688.24 725.712C1687.57 725.864 1686.88 726.035 1686.38 726.498C1685.57 727.26 1685.56 728.525 1685.6 729.639C1685.81 734.778 1686.57 740.842 1691.1 743.281C1692.8 744.196 1694.78 744.417 1696.7 744.565C1710.16 745.6 1723.83 743.908 1736.63 739.621C1748.35 735.698 1749.85 717.065 1735.78 716.495ZM1781.93 807.672C1770.48 810.069 1760.47 816.867 1749.38 820.569C1741.31 823.26 1732.85 824.232 1724.46 825.241C1718.97 825.899 1706.92 825.226 1703.23 830.062C1694.99 840.848 1717.8 850.877 1725.29 849.88C1729.24 849.355 1732.69 847.037 1735.96 844.755C1750.71 834.446 1765.08 823.578 1779.02 812.183C1780.46 811.003 1782.03 809.53 1781.93 807.672Z" fill="#384535"/>
<path opacity="0.15" d="M1838.55 778.118C1795.66 748.87 1763.24 707.103 1727.96 669.014C1692.68 630.923 1654.25 593.458 1603.8 581.166C1602.04 579.5 1615.4 575.969 1617.77 575.091C1621.1 573.858 1624.39 572.493 1627.65 571.092C1640.69 565.497 1653.5 558.985 1667.45 555.91C1668.88 555.596 1670.35 555.316 1671.8 555.553C1678.19 556.603 1678.43 563.898 1679.08 568.777C1680.18 577.006 1683.04 584.732 1683.42 593.181C1683.81 601.595 1683.56 611.548 1690.37 616.502C1695.46 620.204 1702.96 619.231 1707.92 615.363C1712.88 611.494 1715.59 605.327 1716.71 599.137C1718.27 590.503 1716.78 581.471 1713 573.595C1710.99 569.42 1708.34 565.546 1705.13 562.2C1702.13 559.069 1697.7 557.016 1695 553.985C1700.82 551.093 1708.39 550.187 1714.75 548.863C1722.13 547.328 1730.22 546.042 1736.88 549.576C1738.71 550.549 1740.35 551.851 1741.97 553.145C1748.57 558.407 1752.75 561.47 1755.59 569.544C1758.09 576.656 1759.58 584.118 1760.06 591.641C1760.51 598.875 1760.03 606.171 1758.58 613.274C1757.83 616.961 1756.82 620.597 1755.54 624.138C1754.76 626.33 1751.13 631.573 1751.35 633.681C1749.47 637.232 1747.63 642.308 1750.9 644.631C1751.97 645.388 1753.33 645.571 1754.63 645.732C1761.41 646.568 1769.24 647.068 1774.07 642.237C1778.6 637.704 1778.47 630.447 1778.04 624.053C1776.93 607.637 1775.83 591.219 1774.72 574.803C1774.47 571.136 1773.42 566.626 1773.92 562.998C1774.56 558.439 1776.04 559.396 1780.76 559.293C1788.98 559.116 1797.2 558.92 1805.42 558.734C1812.72 558.569 1820.94 558.758 1826.01 564.019C1832.12 570.368 1833.84 584.038 1834.9 592.489C1836.21 602.921 1835.82 613.553 1833.87 623.881C1831.97 633.952 1828.59 643.75 1823.82 652.821C1821.44 657.347 1818.71 661.693 1815.65 665.791C1814.71 667.049 1805.29 676.75 1805.5 677.293C1808.9 686.424 1822.62 687.345 1830.25 681.287C1837.88 675.228 1840.91 665.2 1843.52 655.812C1850.49 630.794 1857.53 604.996 1854.48 579.205C1863.11 581.213 1871.49 584.236 1879.42 588.193C1882.66 589.811 1885.92 591.667 1888.1 594.558C1890.02 597.088 1890.95 600.207 1891.8 603.263C1894.75 613.808 1897.21 624.753 1895.96 635.629C1891.81 671.717 1850.41 692.297 1838.84 726.73C1843.4 731.387 1851.14 730.561 1857.2 728.154C1872.39 722.12 1883.51 708.848 1892.08 694.933C1906.7 671.176 1915.79 644.031 1918.4 616.256C1931.95 628.551 1945.5 640.846 1959.05 653.14C1962.36 656.143 1965.69 659.176 1968.26 662.828C1974.68 671.939 1975.61 683.693 1976.32 694.813C1976.94 704.45 1977.52 714.39 1974.34 723.509C1970.76 733.773 1962.84 741.835 1955.05 749.412C1940.48 763.587 1925.12 777.634 1906.43 785.644C1894.3 790.847 1881.22 793.298 1868.17 795.455C1857.94 790.325 1848.03 784.582 1838.55 778.118ZM1783.06 691.422C1784.61 690.453 1785.65 688.859 1786.6 687.295C1789.72 682.165 1802.4 663.283 1796.88 657.858C1791.45 652.524 1772.18 669.182 1766.96 672.565C1765.95 673.223 1764.88 673.942 1764.39 675.047C1763.98 675.968 1764.03 677.02 1764.09 678.027C1764.32 681.879 1764.55 685.73 1764.78 689.582C1764.82 690.217 1764.87 690.89 1765.24 691.41C1765.74 692.118 1766.68 692.342 1767.53 692.483C1771.19 693.091 1774.93 693.174 1778.61 692.728C1780.16 692.542 1781.74 692.247 1783.06 691.422ZM1905.86 734.958C1908.75 730.797 1911.32 726.408 1914.57 722.523C1916.23 720.538 1918.08 718.663 1919.25 716.357C1923.17 708.661 1918.42 695.283 1908.86 702.24C1899.42 709.111 1891.65 720.751 1883.79 729.384C1878.61 735.078 1873.36 740.828 1866.99 745.154C1861.91 748.602 1856.19 751.096 1851.47 755.011C1850.75 755.601 1850.02 756.319 1849.95 757.241C1849.89 758.138 1850.49 758.932 1851.06 759.626C1853.22 762.256 1855.48 764.808 1857.83 767.278C1858.81 768.315 1859.9 769.385 1861.3 769.685C1862.78 770.004 1864.29 769.383 1865.67 768.745C1881.74 761.304 1895.77 749.511 1905.86 734.958ZM1908.44 775.45C1912.32 773.196 1921.74 764.959 1914.39 760.724C1909.61 757.966 1897 764.659 1892.21 766.173C1887.57 767.638 1882.81 769.168 1879.04 772.233C1877.94 773.129 1876.86 774.291 1876.81 775.71C1876.77 776.56 1877.11 777.375 1877.44 778.158C1878.37 780.347 1879.48 782.729 1881.66 783.68C1882.99 784.257 1884.49 784.197 1885.93 784.039C1893.97 783.148 1901.45 779.515 1908.44 775.45Z" fill="#384535"/>
<path opacity="0.15" d="M1603.8 581.167C1654.24 593.458 1692.68 630.924 1727.96 669.015C1763.24 707.106 1795.66 748.873 1838.55 778.12C1848.03 784.583 1857.94 790.326 1868.17 795.457C1902.39 812.631 1940.26 822.633 1978.39 827.134C1992.59 828.809 2007.34 829.896 2019.91 836.717C2032.54 843.571 2042.81 855.069 2056.69 858.804C2023.02 849.757 1989.36 840.711 1955.7 831.663C1924.48 823.273 1893 814.764 1863.94 800.71C1861.51 799.536 1859.1 798.337 1856.71 797.083C1757.98 745.285 1704.14 629.771 1603.8 581.167Z" fill="#455641"/>
<path d="M1920 71.6401C1557.19 129.816 1280 444.288 1280 823.5C1280 849.32 1281.29 874.84 1283.79 900" stroke="#DEB994" stroke-opacity="0.15"/>
<path d="M657.671 -1C745.675 322.29 1041.33 560 1392.5 560C1597.26 560 1783.15 479.183 1920 347.706" stroke="#DEB994" stroke-opacity="0.15"/>
<path d="M0 192.552C202.146 329.463 335 560.966 335 823.5C335 849.32 333.715 874.84 331.205 900" stroke="#DEB994" stroke-opacity="0.15"/>
</g>
<defs>
<clipPath id="clip0_2040_1591">
<rect width="1920" height="900" fill="white"/>
</clipPath>
</defs>
</svg>
