<svg width="106" height="105" viewBox="0 0 106 105" fill="none" xmlns="http://www.w3.org/2000/svg">
<path d="M53.4019 95.5148C56.9548 102.059 109.953 109.794 104.624 92.54C100.36 78.7372 77.7792 82.6242 67.0216 86.293C60.6262 81.7714 64.3569 71.1218 67.0216 66.3622C80.6413 46.4313 79.753 35.1273 70.2785 28.5828C62.6988 23.3472 55.8692 7.5612 53.4019 0.322632C53.6979 3.79318 51.329 14.304 39.4858 28.5828C24.6818 46.4313 36.2289 53.8682 42.4466 66.3622C47.4208 76.3574 42.5453 83.8141 39.4858 86.293C28.7283 82.8225 6.08736 77.4281 1.58734 90.7552C-5.14252 110.686 48.0724 102.654 53.4019 95.5148ZM53.4019 95.5148C58.1391 93.5316 68.9755 90.1602 74.4234 92.54M53.4019 39.5894C58.2343 39.2735 60.7258 45.1631 60.212 50.001C59.7675 54.1869 57.591 58.2498 53.4019 58.3303C48.7203 58.4204 46.539 52.9076 46.8884 48.2162C47.2025 43.9993 49.202 39.864 53.4019 39.5894Z" stroke="#D8AA78" stroke-width="2"/>
</svg>
