<svg width="62" height="56" viewBox="0 0 62 56" fill="none" xmlns="http://www.w3.org/2000/svg">
<path d="M14.8259 42.2436C13.2433 43.4534 11.1952 46.4314 15.6638 48.6649C21.2495 51.4568 55.3221 52.2944 49.4572 43.6395M7.56447 40.8477C3.65448 42.2436 -2.82492 45.9847 2.53735 49.7817C9.24018 54.5279 28.7901 55.0862 32.1415 55.0862C35.4929 55.0862 62.5835 53.6903 61.4664 46.1522C61.2802 44.384 59.6231 40.8477 54.4843 40.8477M42.1958 25.4923C43.8715 29.5871 44.3742 38.5025 32.9794 41.406M31.0243 0.0862427C30.3727 3.80875 27.0026 13.2081 18.7358 21.0253C8.40229 30.7969 19.5737 46.1522 31.0243 45.0355C42.475 43.9187 54.4843 37.4974 43.5922 21.0253C39.8684 17.3959 32.1414 8.12685 31.0243 0.0862427Z" stroke="#D8AA78"/>
</svg>
