<svg width="40" height="40" viewBox="0 0 40 40" fill="none" xmlns="http://www.w3.org/2000/svg">
<rect x="0.215054" y="0.215054" width="39.5699" height="39.5699" rx="19.7849" stroke="#ADA07D" stroke-opacity="0.6" stroke-width="0.430108"/>
<path d="M17.9747 7.82202C23.3815 8.88407 25.0284 13.2537 25.1759 15.3054C27.4824 15.9223 31.9908 18.4589 31.5724 23.6726C31.154 28.8863 27.5361 31.0748 25.7794 31.5173C16.7038 34.0276 11.6723 29.5593 10.2911 27.0115C12.9463 29.2643 18.5386 29.546 23.004 26.5691C26.5761 24.1875 26.2621 19.6899 25.1759 16.8337C24.4115 24.1954 18.6592 25.8852 15.8029 25.7244C13.3891 25.5884 10.5326 24.1152 10.2911 19.6902C10.098 16.1501 12.6781 15.077 13.9923 14.9832H21.6759C21.2576 13.5352 19.625 13.1727 18.8605 13.1726H12.0616C9.19741 12.7542 8.42737 10.6117 8.40051 9.59253V7.74194L17.9747 7.82202ZM16.004 17.3972C14.2934 17.3972 12.9066 18.7655 12.9064 20.4539C12.9064 22.1424 14.2932 23.5115 16.004 23.5115C17.7147 23.5113 19.1017 22.1423 19.1017 20.4539C19.1014 18.7656 17.7145 17.3973 16.004 17.3972Z" fill="#9E9271"/>
</svg>
