<svg width="55" height="57" viewBox="0 0 55 57" fill="none" xmlns="http://www.w3.org/2000/svg">
<path d="M22.9304 17.6609L17.2753 10.1487M17.2753 10.1487C16.1981 8.18125 15.2825 3.81702 20.2375 2.09995C21.2249 1.92109 23.7382 1.93897 25.8926 3.44141L27.2391 1.02667L28.5855 3.44141C29.932 2.81543 33.1888 1.40522 35.0486 2.09995C37.2029 2.90472 39.6265 6.12444 37.4722 10.1487M17.2753 10.1487C8.87342 4.56832 6.95227 11.4007 7.04193 15.5145L4.88758 15.7828L5.15703 18.1974C1.11778 19.8072 0.848336 21.4169 0.848336 24.3681C0.848336 26.7291 5.69551 28.0348 8.1191 28.3925M37.4722 10.1487L31.5477 17.6609M37.4722 10.1487C40.7935 7.91292 47.4899 5.2657 47.7053 12.5633V15.5145H50.129L49.0518 18.1974C51.2061 19.0023 55.1378 21.3633 53.6298 24.3681C52.1217 27.373 48.1542 28.3031 46.3589 28.3925M25.354 8.80716L26.4312 16.5876M29.3934 8.80716L27.7776 16.5876M46.3589 28.3925H38.2801M46.3589 28.3925C51.1164 29.0185 58.8002 31.8803 51.4754 38.3194L49.5904 39.3925L50.6676 41.5389L47.7053 42.0755C48.7825 44.4901 49.4288 49.3194 43.3966 49.3194C42.4882 49.2371 40.2427 48.5795 38.0439 46.6364M31.5477 39.3925C32.5352 40.6446 35.1024 43.7389 37.4722 46.0998C37.6618 46.2887 37.8527 46.4674 38.0439 46.6364M38.0439 46.6364C38.7509 50.1242 38.4416 56.6706 31.5477 54.9535L28.5855 53.8803L27.2391 56.0267L25.8926 53.8803C23.8281 55.4007 19.2143 57.2072 17.2753 52.2706C17.006 51.0185 17.1676 48.5681 17.8138 46.6364M17.8138 46.6364L22.9304 40.1974M17.8138 46.6364C14.7618 48.6933 8.22697 51.4657 6.50349 46.0998V42.0755H3.81056L5.15703 39.3925C3.09245 38.7665 -0.659705 36.6023 0.848336 32.9535C2.35638 29.3047 6.32386 28.3925 8.1191 28.3925M8.1191 28.3925H16.1979M11.8892 16.5876L17.8138 21.4169M9.73486 20.0755L16.1979 22.7584M9.73486 36.9779L16.1979 34.0267M11.8892 40.1974L17.2753 35.3681M25.354 47.4413L26.4312 40.1974M29.3934 47.4413L28.3161 40.4657M42.5886 39.3925L37.4722 35.3681M44.743 36.4413L38.2801 34.0267M42.5886 16.5876L37.4722 21.4169M44.743 20.0755L38.2801 22.7584M27.2391 20.0755C31.9952 19.8497 36.0524 23.6492 36.1256 28.3925C36.1976 33.06 32.4625 36.9037 27.7776 36.9779C23.019 37.0532 19.0871 33.1336 19.1601 28.3925C19.2297 23.8731 22.7074 20.2906 27.2391 20.0755ZM27.2391 24.3681C29.7756 24.1532 32.2163 25.86 32.3555 28.3925C32.4937 30.9077 30.3049 32.8815 27.7776 32.9535C25.175 33.0276 22.7585 30.9809 22.9304 28.3925C23.0828 26.0997 24.9409 24.5629 27.2391 24.3681Z" stroke="#D8AA78"/>
</svg>
