<svg width="63" height="56" viewBox="0 0 63 56" fill="none" xmlns="http://www.w3.org/2000/svg">
<path d="M51.2547 7.82617C51.7612 10.4717 50.4645 15.946 41.2253 16.6786M17.5195 14.8471C13.8725 15.9664 6.5784 19.548 6.5784 24.9206C6.5784 31.6362 18.7352 37.1308 30.892 36.8256C43.0488 36.5203 52.7743 31.331 52.4703 24.9206M47.6076 23.3943C46.9998 26.3451 43.2312 32.1857 33.0195 31.9415M4.45096 35.2993C2.72875 36.8256 0.500291 39.5729 0.5 43.236C0.49971 46.8991 11.1372 57.5831 36.0587 55.141C60.9801 52.6989 62.5 45.3728 62.5 41.7097C62.5 37.9961 56.6712 33.4678 53.3824 31.9415M51.2547 37.7413C53.99 39.6746 56.7255 44.457 45.7844 48.1201M55.5095 10.5735C55.5095 16.1369 47.3454 20.647 37.2743 20.647C27.2033 20.647 19.0391 16.1369 19.0391 10.5735C19.0391 5.01005 27.2033 0.5 37.2743 0.5C47.3454 0.5 55.5095 5.01005 55.5095 10.5735Z" stroke="#D8AA78"/>
</svg>
