<svg width="19" height="29" viewBox="0 0 19 29" fill="none" xmlns="http://www.w3.org/2000/svg">
<path d="M2.56057 10.5735C1.90708 10.006 0.600098 8.36821 0.600098 6.35751C0.600098 3.84413 2.56057 0.519988 6.65199 0.601064C10.7434 0.682141 13.0448 3.92523 12.3629 7.24936M4.16816 9.03305C3.77436 8.68243 2.98676 7.67063 2.98676 6.42843C2.98676 4.87567 4.16816 2.82203 6.6337 2.87212C9.09924 2.92221 10.4861 4.92578 10.0752 6.97941M8.10104 10.4114V6.19537C8.12945 5.73593 7.87942 4.81706 6.65199 4.81706C5.42457 4.81706 5.06089 5.73593 5.03247 6.19537V14.9516M8.10104 10.4114V16.4921M8.10104 10.4114C8.44199 10.087 9.31142 9.50329 10.0615 9.76274C10.9991 10.087 11.3401 11.06 11.3401 11.5464M11.3401 11.5464V16.4921M11.3401 11.5464C11.5674 11.1681 12.2095 10.4762 12.9596 10.7357C13.8972 11.06 14.2382 11.6275 14.3234 12.2761M14.3234 12.2761C14.3916 12.795 14.3518 15.303 14.3234 16.4921V12.2761ZM14.3234 12.2761C14.6644 11.3032 17.4943 10.4762 17.5624 13.3301C17.6306 16.184 17.5909 20.0865 17.5624 21.681C17.3351 23.2755 16.5396 26.6915 15.1758 27.5996M6.2258 27.5996C4.94724 26.1402 2.49238 22.2323 2.90153 18.2758L5.03247 14.9516M5.03247 19.7352V14.9516" stroke="black" stroke-width="1.2" stroke-linecap="round"/>
</svg>
