<svg width="94" height="93" viewBox="0 0 94 93" fill="none" xmlns="http://www.w3.org/2000/svg">
<rect x="0.5" y="0.5" width="92.9383" height="91.9996" rx="45.9998" stroke="#ADA07D" stroke-opacity="0.6"/>
<path fill-rule="evenodd" clip-rule="evenodd" d="M42.2607 18.1875C54.8314 20.6568 58.6599 30.8138 59.0029 35.584C64.3655 37.0182 74.8477 42.9172 73.875 55.0391C72.9022 67.1605 64.4906 72.2483 60.4062 73.2773C39.3053 79.1138 27.6078 68.7255 24.3965 62.8018C30.5696 68.0395 43.5701 68.6947 53.9521 61.7734C62.2578 56.2364 61.5282 45.7795 59.0029 39.1387C57.2257 56.2549 43.8507 60.1827 37.21 59.8086C31.598 59.4924 24.9577 56.0677 24.3965 45.7793C23.9475 37.5485 29.9456 35.0542 33.001 34.8359H50.8662C49.8935 31.4688 46.0955 30.627 44.3184 30.627H28.5117C21.8524 29.6542 20.0625 24.6723 20 22.3027V18L42.2607 18.1875ZM37.6777 40.4482C33.7002 40.4482 30.4756 43.6307 30.4756 47.5566C30.4758 51.4824 33.7003 54.665 37.6777 54.665C41.6551 54.665 44.8797 51.4824 44.8799 47.5566C44.8799 43.6308 41.6553 40.4483 37.6777 40.4482Z" fill="#9E9271"/>
</svg>
